# xmcd
# 
# Track frame offsets:
#     150
#     11134
#     39696
#     53585
#     63670
#     76091
#     89936
#     101250
#     112432
#     125894
#     136502
#     148610
#     163084
#     175498
#     187729
#     199898
#     220026
#     230816
#     241797
# 
# Disc length: 3417
# 
# Revision: 0
# Processed by: cddbd v1.5.2PL0 Copyright (c) Steve Scherf et al.
# Submitted via: fre:ac v1.0.17
# 
DISCID=160d5713
DTITLE=The Grass Cats - 9 Lives And More
DYEAR=2005
DGENRE=Country
TTITLE0=Hold This Memory
TTITLE1=Seven Bridges Road
TTITLE2=Your Only Friend
TTITLE3=Come In
TTITLE4=Bluegrass Man
TTITLE5=Bounty Hunter
TTITLE6=Next to Nothing
TTITLE7=What I Like About You
TTITLE8=Old, Old House
TTITLE9=A Little At A Time
TTITLE10=Copperhead Road
TTITLE11=I Know It's Not Me
TTITLE12=Ruby, Don't Take Your Love to Town
TTITLE13=More Pretty Girls Than One
TTITLE14=Somebody Prayed
TTITLE15=Johnson's Love
TTITLE16=I Got Stripes
TTITLE17=Inside The Gate
TTITLE18=Little Maggie
EXTD=
EXTT0=
EXTT1=
EXTT2=
EXTT3=
EXTT4=
EXTT5=
EXTT6=
EXTT7=
EXTT8=
EXTT9=
EXTT10=
EXTT11=
EXTT12=
EXTT13=
EXTT14=
EXTT15=
EXTT16=
EXTT17=
EXTT18=
PLAYORDER=
